<?xml version="1.0" encoding="utf-8"?>
<!-- Generator: Adobe Illustrator 25.2.0, SVG Export Plug-In . SVG Version: 6.00 Build 0)  -->
<svg version="1.1" id="Layer_1" xmlns="http://www.w3.org/2000/svg" xmlns:xlink="http://www.w3.org/1999/xlink" x="0px" y="0px"
	 viewBox="0 0 204.1 81.2" style="enable-background:new 0 0 204.1 81.2;" xml:space="preserve">
<style type="text/css">
	.st0{fill:#001B2B;}
	.st1{fill:#003751;}
	.st2{clip-path:url(#SVGID_2_);}
	.st3{fill:#FFFFFF;}
	.st4{opacity:0.5;fill:#FFFFFF;enable-background:new    ;}
</style>
<g>
	<path class="st0" d="M96.1,31.6c-1,0.1-2.5,0.2-4.1,0.5c3-5.4,5.9-10.4,8-13.9c3.7-0.6,8-1.7,12.6-1.7c0.8,0,0.9-0.5,0.7-0.9
		c-0.8-1.9-2.4-3.1-5-3.1c-3.5,0-9.8,1.7-14.9,1.5c-0.6,0-0.8,0.2-0.7,0.7c0.3,1.3,0.9,2.4,2.4,3.1c-5.3,8.7-11.8,20.7-13.7,26
		c-1.3,3.8-0.7,5.8,0.5,6.7c0.5,0.3,0.8,0.3,1-0.2c1.7-4.1,4.1-8.7,6.4-13.2c3.5-0.8,8.2-1.7,11.2-1.7c0.7,0,0.8-0.3,0.7-0.9
		C100.8,32.8,99.1,31.5,96.1,31.6z"/>
	<path class="st0" d="M200.9,40.5c-0.1-0.6-0.7-0.6-0.9-0.1c-2.4,3.4-6,6.8-10.8,9.4c2.5-5.9,6.3-13.2,8.1-16.8
		c1.6-3.1,1-5.8,0.2-6.8c-0.6-0.5-0.9-0.3-1.5,0.5c-2.1,3.1-4.7,8.6-7.4,13.1c-3.1,5.3-6.1,9.3-8.6,9c-1.4-0.1-1.5-2.3-0.3-5.2
		c1.2-2.9,2.5-5.3,4.7-8.9c2.3-3.6,2.7-6.1,1.2-8.1c-0.5-0.6-1-0.7-1.5,0c-3.9,5.4-6.9,11.6-8.3,15.4c-0.2,0.7-0.5,1.4-0.6,2.1
		c-1.9,2.7-4.1,5-5.8,5.1c-2.3,0.1-2.5-2.8-1-6.3c1.4-3.1,4.3-7.6,5.7-10.3c1.6-3.1-0.3-6.1-2.4-6.4c-1.6-0.2-4.9,1.9-7.3,4.3
		c2.7-4.1,5.9-9,7.3-11.5c2.3-3.8,2.5-6.9,1.7-8.7c-0.3-0.7-0.9-0.8-1.5-0.1c-4.7,6-16.9,26.4-19.6,33.2c-2.5,3-6,5.9-10,5.8
		c-3.6-0.1-4.9-5.1-1.5-12c2.8-5.6,7.3-9.5,8.3-8.6c0.8,0.7-0.9,3.2-1.6,5.4c-0.8,2.8,0,4.6,1.5,5.3c0.8,0.5,1,0.2,1.3-0.5
		c1.3-3.2,3.7-6.5,2.4-9.1c-0.7-1.4-1.7-2.4-3.4-3.4c-3-1.9-9.3,1.5-13.1,9.1c-1.5,2.9-2,5.8-1.7,8.2c-2.1,3.1-4.5,5.6-6.6,5.4
		c-2.5-0.1-3.2-3.9-1.3-8.3c2.3-5.1,5.8-11,8.2-15.2c1.5-0.2,3.5-0.5,4.7-0.2c0.9,0,1.2-0.5,0.7-1.2c-0.5-0.8-1.4-1.9-3.8-1.9
		c1.5-3.1,1.5-5.2,0.8-6.9c-0.3-0.7-0.9-0.8-1.5,0c-1,1.4-2.8,4.2-4.6,7.5c-1.6,0.2-3.4,0.3-5.1,0.2c-0.9-0.1-1.3,0.3-0.7,1.3
		c0.5,0.7,1.9,1.6,3.9,1.6c-2.7,4.9-5.2,10-6.5,13c-0.3,0.8-0.6,1.5-0.7,2.2c-2.7,3.8-6.8,8-11.6,7.8c-3.2-0.2-4.7-4.1-2.8-9.6
		c4.3,3.5,8.3,1.9,11.3-1.7c2.5-3.1,3-6.8,2-8.3c-0.9-1.4-2.1-2.3-3.6-3.1c-3-1.7-9.3,1.4-13.2,9.3c-3.9,7.9-1.3,15.5,6.5,15.4
		c4.2,0,8.3-2.3,11-5.4c0.5,3.4,2.8,5.3,5.3,5.3c3.2,0.1,6.1-2.2,7.9-4.3c1.2,2.7,3.7,4.4,7.4,4.3c3.1,0,6.3-1.4,8.7-3.4
		c0,1.4,0.5,2.2,0.9,2.9c0.3,0.5,0.8,0.3,1-0.2c1.5-3.7,3.7-8,5.9-11.6c3.6-5.8,10.2-10,11-9.5c0.9,0.6-4.3,6.9-6.4,12.8
		c-1.9,5.3-0.6,9,4.6,9c2.3,0,4.7-1.3,6.6-3.1c0.5,1.6,1.5,2.8,3.7,3c2.4,0.2,4.7-1.4,6.6-3.4c-0.7,1.5-1.3,3-1.9,4.4
		c-6,2.4-11.2,6-13.1,11.6c-1.3,3.6,0,5.8,1.3,7.5c1.2,1.7,2.3,1.7,3.5,1.3c5.1-2,9.4-11.8,12.8-19.9c5.1-2.1,9.4-4.4,11.7-8.2
		C200.9,42.5,201,41,200.9,40.5z M109,37.2c2.9-5.8,8-9.5,9.3-8.5c0.8,0.7-0.5,3.8-2.4,6.4c-1.7,2.3-4.3,5-7.3,3
		C108.6,37.9,108.9,37.5,109,37.2z M173,68.8c-1-1.5,1.6-9.8,9.6-14.5C178.8,63.3,173.8,69.9,173,68.8z"/>
</g>
<rect x="51.2" y="51" class="st1" width="25.4" height="25.3"/>
<rect x="81.4" y="64.2" class="st1" width="14.7" height="14.7"/>
<g>
	<defs>
		<polygon id="SVGID_1_" points="46.5,46.2 71.9,46.2 71.9,0 0,0 0,71.5 46.5,71.5 		"/>
	</defs>
	<clipPath id="SVGID_2_">
		<use xlink:href="#SVGID_1_"  style="overflow:visible;"/>
	</clipPath>
	<g class="st2">
		<rect class="st1" width="71.9" height="71.5"/>
		<polygon class="st3" points="34.8,23.8 19,23.8 19,7.9 		"/>
		<polygon class="st3" points="34.8,41.8 19,26 34.8,26 		"/>
		<polygon class="st4" points="25.6,54.8 34.8,54.8 25.6,64.1 		"/>
		<polygon class="st4" points="34.8,43.2 34.8,52.5 25.6,52.5 		"/>
		<polygon class="st4" points="37.1,23.8 53,23.8 53,7.9 		"/>
		<polygon class="st3" points="46.5,54.8 37.1,54.8 46.5,64.1 		"/>
		<polygon class="st3" points="37.1,43.2 37.1,52.5 46.5,52.5 		"/>
		<polygon class="st4" points="37.1,41.8 53,26 37.1,26 		"/>
	</g>
</g>
</svg>
